<svg width="56" height="56" viewBox="0 0 56 56" fill="none" xmlns="http://www.w3.org/2000/svg">
<path d="M5.97484 35.3146L1.79486 31.1346C0.0898633 29.4296 0.0898633 26.6246 1.79486 24.9196L5.97484 20.7396C6.68984 20.0246 7.26733 18.6221 7.26733 17.6321V11.7197C7.26733 9.29969 9.24736 7.31958 11.6674 7.31958H17.5798C18.5698 7.31958 19.9723 6.74216 20.6873 6.02716L24.8672 1.84711C26.5722 0.142109 29.3775 0.142109 31.0825 1.84711L35.2625 6.02716C35.9775 6.74216 37.3797 7.31958 38.3697 7.31958H44.2825C46.7025 7.31958 48.6822 9.29969 48.6822 11.7197V17.6321C48.6822 18.6221 49.2597 20.0246 49.9747 20.7396L54.155 24.9196C55.86 26.6246 55.86 29.4296 54.155 31.1346L49.9747 35.3146C49.2597 36.0296 48.6822 37.4321 48.6822 38.4221V44.3346C48.6822 46.7546 46.7025 48.7346 44.2825 48.7346H38.3697C37.3797 48.7346 35.9775 49.3121 35.2625 50.0271L31.0825 54.2071C29.3775 55.9121 26.5722 55.9121 24.8672 54.2071L20.6873 50.0271C19.9723 49.3121 18.5698 48.7346 17.5798 48.7346H11.6674C9.24736 48.7346 7.26733 46.7546 7.26733 44.3346V38.4221C7.26733 37.4046 6.68984 36.0021 5.97484 35.3146Z" fill="#68372E"/>
<path d="M36.2506 39C34.7106 39 33.4731 37.7625 33.4731 36.25C33.4731 34.7375 34.7106 33.5 36.2231 33.5C37.7356 33.5 38.9731 34.7375 38.9731 36.25C38.9731 37.7625 37.7631 39 36.2506 39Z" fill="#DECDC5"/>
<path d="M19.7775 22.5C18.2375 22.5 17 21.2625 17 19.75C17 18.2375 18.2375 17 19.75 17C21.2625 17 22.5 18.2375 22.5 19.75C22.5 21.2625 21.29 22.5 19.7775 22.5Z" fill="#DECDC5"/>
<path d="M19.7485 38.3124C19.226 38.3124 18.7035 38.1199 18.291 37.7074C17.4935 36.9099 17.4935 35.5896 18.291 34.7921L34.7911 18.2922C35.5886 17.4947 36.9086 17.4947 37.7061 18.2922C38.5036 19.0897 38.5036 20.4099 37.7061 21.2074L21.206 37.7074C20.7935 38.1199 20.271 38.3124 19.7485 38.3124Z" fill="#DECDC5"/>
</svg>
